<svg width="98" height="100" viewBox="0 0 98 100" fill="none" xmlns="http://www.w3.org/2000/svg">
<path d="M96.2381 54.0486H27.5177L15.969 30.7954C15.969 30.7954 25.4601 33.7164 39.0077 30.6404C64.7816 24.7884 60.1149 0 60.1149 0C60.1149 0 57.5203 23.0659 30.1761 15.4501C10.0583 9.84709 3.57647 18.9659 3.57647 18.9659L23.9881 60.0635C15.8988 60.1666 3.72827 69.5943 0.943603 79.4849C-2.13851 90.4314 5.26213 100.052 15.2625 99.9998C22.8541 99.9604 30.8021 95.7239 34.3259 86.2347H56.0827C56.4872 86.2347 56.8751 86.074 57.1611 85.788C57.4472 85.5019 57.6079 85.114 57.6079 84.7095C57.6079 84.305 57.4472 83.917 57.1611 83.631C56.8751 83.345 56.4872 83.1843 56.0827 83.1843H35.2547C35.5953 81.7929 35.8295 80.3777 35.9555 78.9508H67.4136C67.8181 78.9508 68.2061 78.7901 68.4921 78.5041C68.7781 78.218 68.9388 77.8301 68.9388 77.4256C68.9388 77.0211 68.7781 76.6331 68.4921 76.3471C68.2061 76.0611 67.8181 75.9004 67.4136 75.9004H36.0517C36.0147 74.4772 35.8493 73.0603 35.5575 71.6669H77.3746C77.7792 71.6669 78.1671 71.5062 78.4531 71.2202C78.7392 70.9342 78.8999 70.5462 78.8999 70.1417C78.8999 69.7372 78.7392 69.3492 78.4531 69.0632C78.1671 68.7772 77.7792 68.6165 77.3746 68.6165H34.6586C34.4481 68.0691 34.2191 67.5375 33.9644 67.0294L32.65 64.383H85.7788C86.1833 64.383 86.5712 64.2223 86.8573 63.9363C87.1433 63.6503 87.304 63.2623 87.304 62.8578C87.304 62.4533 87.1433 62.0654 86.8573 61.7793C86.5712 61.4933 86.1833 61.3326 85.7788 61.3326H31.1356L29.033 57.0991H96.2381C96.6426 57.0991 97.0305 56.9384 97.3166 56.6524C97.6026 56.3663 97.7633 55.9784 97.7633 55.5738C97.7633 55.1693 97.6026 54.7813 97.3166 54.4953C97.0305 54.2093 96.6426 54.0486 96.2381 54.0486Z" fill="url(#paint0_linear_1_217)"/>
<defs>
<linearGradient id="paint0_linear_1_217" x1="18.7366" y1="34.5" x2="72.1919" y2="74.9364" gradientUnits="userSpaceOnUse">
<stop offset="0.140625" stop-color="#35B6C8"/>
<stop offset="0.45359" stop-color="#318DCF"/>
<stop offset="0.916667" stop-color="#2C61D7"/>
</linearGradient>
</defs>
</svg>
